HIERARCHY
ROOT Hips
{
	OFFSET 0.00000 0.00000 0.00000
	CHANNELS 6 Xposition Yposition Zposition Yrotation Zrotation Xrotation 
	JOINT Lumbar
	{
		OFFSET 0 0 0
		CHANNELS 3 Zrotation Xrotation Yrotation
		JOINT Neck
		{
			OFFSET 0.00 0.2701 0.00
			CHANNELS 3 Zrotation Xrotation Yrotation
			End Site
			{
				OFFSET 0.00 0.1379 0.00
			}
		}
		JOINT RightShoulder
		{
			OFFSET 0.0119 0.2289 0.1181
			CHANNELS 3 Zrotation Xrotation Yrotation
			JOINT RightElbow
			{
				OFFSET 0.00 -0.1475 0.00
				CHANNELS 2 Zrotation Yrotation
				JOINT RightWrist
				{
					OFFSET 0.00 -0.1605 0.00
					CHANNELS 2 Zrotation Xrotation
					End Site
					{
						OFFSET 0.0040 -0.1068 0.0006
					}
				}
			}
		}
		JOINT LeftShoulder
		{
			OFFSET 0.0119 0.2289 -0.1181
			CHANNELS 3 Zrotation Xrotation Yrotation
			JOINT LeftElbow
			{
				OFFSET 0.00 -0.1475 0.00
				CHANNELS 2 Zrotation Yrotation
				JOINT LeftWrist
				{
					OFFSET 0.00 -0.1605 0.00
					CHANNELS 2 Zrotation Xrotation
					End Site
					{
						OFFSET 0.0040 -0.1068 -0.0006
					}
				}
			}
		}
	}
	JOINT RightHip
	{
		OFFSET 0.0316 -0.0424 0.0458
		CHANNELS 3 Zrotation Xrotation Yrotation
		JOINT RightKnee
		{
			OFFSET 0.00 -0.2438 0.00
			CHANNELS 1 Zrotation
			JOINT RightAnkle
			{
				OFFSET 0.00 -0.2449 0.00
				CHANNELS 3 Zrotation Xrotation Yrotation
				End Site
				{
					OFFSET 0.1237 -0.0542 0.0051
				}
			}
		}
	}
	JOINT LeftHip
	{
		OFFSET 0.0316 -0.0424 -0.0458
		CHANNELS 3 Zrotation Xrotation Yrotation
		JOINT LeftKnee
		{
			OFFSET 0.00 -0.2438 0.00
			CHANNELS 1 Zrotation
			JOINT LeftAnkle
			{
				OFFSET 0.00 -0.2449 0.00
				CHANNELS 3 Zrotation Xrotation Yrotation
				End Site
				{
					OFFSET 0.1237 -0.0542 -0.0051
				}
			}
		}
	}
}
MOTION
Frames: 23
Frame Time: 0.02
0.13422 0.44024 0.01109 181.87912 0 -4.8056 -2.81723 5.8127 1.38774 -30.88404 0.23462 0.97282 56.02497 -41.656 50.90697 91.52434 64.36782 -18.96187 -0.40116 46.09169 21.64007 -41.63648 87.59436 -151.03031 37.52456 -9.50359 57.30438 -1.68853 -9.68446 -65.69873 7.29596 -2.23416 -0.07825 58.71638 6.86081 3.86274 -60.79454 6.0778 5.53081 7.09951
0.13426 0.44026 0.01109 181.85681 0 -4.79929 -2.89245 5.81629 1.40727 -30.80002 0.25222 0.99666 56.22437 -41.66128 51.2485 91.36051 62.43407 -17.06759 0.83917 46.0715 21.51063 -41.64911 87.18439 -149.32245 36.71532 -8.98888 57.30743 -1.66925 -9.66426 -65.68495 7.2888 -2.23958 -0.08476 58.71376 6.84433 3.8233 -60.78797 6.063 5.53749 7.14203
0.13432 0.44028 0.01109 181.83578 0 -4.78533 -2.97329 5.81204 1.42176 -30.67988 0.27707 1.0178 56.47241 -41.70906 51.65056 91.26956 59.8325 -14.571 2.48028 45.98595 21.36082 -41.58151 86.7021 -147.09182 35.49883 -8.33418 57.31055 -1.66033 -9.64359 -65.67026 7.28293 -2.24513 -0.08641 58.70566 6.83204 3.80847 -60.77233 6.04663 5.5372 7.17253
0.13437 0.4403 0.01109 181.81405 0 -4.77529 -3.05018 5.81104 1.43525 -30.57353 0.30149 1.04173 56.7094 -41.75058 52.02526 91.18189 57.91962 -12.32412 3.87328 45.92782 21.21547 -41.55595 86.24918 -145.14433 34.48821 -7.75938 57.31318 -1.64676 -9.62397 -65.65592 7.27657 -2.25014 -0.08966 58.69993 6.81908 3.78373 -60.76123 6.03173 5.54006 7.20725
0.13443 0.44031 0.01109 181.79238 0 -4.76419 -3.13302 5.8123 1.46265 -30.47925 0.31347 1.05957 56.89809 -41.73618 52.40352 90.93913 54.44669 -10.17059 5.54393 45.88176 21.09006 -41.51043 85.81004 -143.00638 33.39939 -7.11563 57.31775 -1.63203 -9.60112 -65.64142 7.26943 -2.25711 -0.09557 58.69517 6.80163 3.75301 -60.74883 6.01373 5.543 7.24733
0.13446 0.44034 0.01109 181.77108 0 -4.75322 -3.2046 5.80655 1.45974 -30.35054 0.3536 1.08934 57.203 -41.84946 52.78666 91.03861 53.98626 -7.69155 6.73115 45.79386 20.91764 -41.4857 85.32437 -141.14015 32.37329 -6.58224 57.31823 -1.62251 -9.58482 -65.62715 7.26435 -2.26007 -0.09475 58.68688 6.79427 3.74075 -60.73676 6.0018 5.54412 7.27337
0.13442 0.4404 0.01111 181.75032 0 -4.74378 -3.24594 5.78432 1.37594 -30.13974 0.46488 1.15168 57.775 -42.29472 53.1743 92.04883 62.66798 -4.35378 6.49346 45.60931 20.6298 -41.54218 84.74068 -140.15356 31.61714 -6.38918 57.30809 -1.62523 -9.58615 -65.61456 7.26478 -2.25194 -0.07649 58.67047 6.81359 3.77421 -60.72821 6.00682 5.54204 7.26335
0.13435 0.44046 0.01114 181.72999 0 -4.73472 -3.27533 5.75499 1.26154 -29.89465 0.60505 1.22624 58.46992 -42.86863 53.56314 93.40401 74.28427 -0.73079 5.75466 45.38407 20.29377 -41.62113 84.11063 -139.45794 30.93742 -6.31181 57.29371 -1.63291 -9.59413 -65.60217 7.26728 -2.23979 -0.05161 58.65057 6.84281 3.82531 -60.72017 6.01802 5.53837 7.23967
0.13429 0.44052 0.01117 181.7096 0 -4.72584 -3.30874 5.72814 1.16007 -29.66255 0.73523 1.29575 59.13556 -43.39061 53.94713 94.612 84.11841 2.69394 5.23953 45.17526 19.97376 -41.6866 83.49369 -138.62797 30.22299 -6.18066 57.28082 -1.63817 -9.59944 -65.58922 7.26883 -2.22949 -0.02973 58.63204 6.86755 3.86798 -60.71162 6.02654 5.53538 7.22233
0.13424 0.44058 0.01119 181.68861 0 -4.71528 -3.34834 5.70417 1.06244 -29.44039 0.85273 1.36296 59.69016 -43.88753 54.3516 95.78207 95.80707 6.43705 4.75331 44.97291 19.6778 -41.7631 82.9076 -137.78885 29.49386 -6.04974 57.26977 -1.64444 -9.60336 -65.57817 7.27049 -2.21909 -0.00767 58.61429 6.89256 3.91338 -60.70401 6.03454 5.5323 7.2039
0.13417 0.44065 0.01122 181.66905 0 -4.70836 -3.37209 5.67263 0.94974 -29.18956 1.00299 1.438 60.50529 -44.46533 54.71276 97.11213 104.35847 9.56737 4.08544 44.74828 19.32065 -41.82303 82.24744 -137.04455 28.81948 -5.94758 57.25389 -1.64969 -9.61164 -65.56327 7.27236 -2.20796 0.01544 58.59413 6.91908 3.9568 -60.6946 6.04502 5.52916 7.18478
0.13407 0.44075 0.01124 181.65244 0 -4.71185 -3.35535 5.62194 0.80201 -28.87007 1.24016 1.53051 62.00304 -45.24582 54.95485 98.79914 103.36557 11.00968 3.01223 44.47194 18.80593 -41.83155 81.39303 -136.49536 28.27321 -5.89793 57.22545 -1.65053 -9.63126 -65.53748 7.27459 -2.19549 0.04056 58.56847 6.94908 3.99156 -60.68094 6.06148 5.52605 7.16597
0.13395 0.44087 0.01125 181.63743 0 -4.71894 -3.323 5.56395 0.64052 -28.52246 1.50858 1.63054 63.7593 -46.10083 55.15295 100.63487 99.15232 11.80563 1.77615 44.17463 18.23169 -41.82301 80.46668 -136.03384 27.78233 -5.87378 57.19233 -1.65018 -9.65488 -65.50788 7.27689 -2.1825 0.06631 58.5405 6.97992 4.02337 -60.66536 6.08008 5.52301 7.14716
0.13385 0.44098 0.01127 181.62224 0 -4.7241 -3.29753 5.5093 0.48578 -28.18683 1.76037 1.7281 65.40189 -46.91464 55.37023 102.40256 96.51823 12.84985 0.63027 43.88772 17.68482 -41.82279 79.5738 -135.53128 27.27084 -5.8376 57.16147 -1.6506 -9.67606 -65.48018 7.27896 -2.16994 0.0913 58.51339 7.0092 4.05565 -60.65016 6.09728 5.52012 7.12916
0.13374 0.4411 0.01129 181.60468 0 -4.73048 -3.27247 5.45416 0.32727 -27.85437 2.02354 1.82276 67.03451 -47.76472 55.59065 104.18465 93.47976 14.10872 -0.59999 43.59689 17.13404 -41.821 78.67425 -135.04156 26.7421 -5.80679 57.12986 -1.65029 -9.70006 -65.45175 7.28192 -2.15637 0.11864 58.48687 7.04375 4.09223 -60.63702 6.11654 5.5164 7.10736
0.13363 0.44121 0.01131 181.59252 0 -4.73522 -3.24312 5.39858 0.1745 -27.50781 2.26991 1.92425 68.74544 -48.55426 55.79452 105.96705 90.50332 14.74774 -1.68817 43.30828 16.57899 -41.81801 77.7743 -134.54473 26.262 -5.76992 57.09881 -1.65111 -9.71907 -65.42397 7.28305 -2.14487 0.14101 58.45874 7.06742 4.11891 -60.6192 6.13191 5.51446 7.09355
0.13353 0.44134 0.01132 181.59404 0 -4.73393 -3.20479 5.34195 0.03473 -27.13961 2.46325 2.04983 70.62674 -49.16609 55.95868 107.71565 88.27336 13.96468 -2.32809 43.04332 16.01777 -41.81715 76.8728 -133.98437 25.89888 -5.70476 57.07009 -1.65555 -9.72327 -65.39859 7.27888 -2.13887 0.15052 58.42571 7.06073 4.11907 -60.58827 6.13629 5.51738 7.10274
0.13344 0.44148 0.01134 181.60109 0 -4.73095 -3.16293 5.28546 -0.09751 -26.75604 2.63819 2.18064 72.57321 -49.71209 56.10808 109.45671 86.23862 12.55566 -2.8189 42.77877 15.45643 -41.81532 75.97729 -133.41661 25.5834 -5.63302 57.04218 -1.6611 -9.72228 -65.37406 7.27291 -2.13506 0.15478 58.39132 7.04305 4.10928 -60.5528 6.13661 5.52209 7.11985
0.13335 0.44161 0.01135 181.60619 0 -4.72914 -3.12337 5.23002 -0.22885 -26.37336 2.82084 2.30433 74.47893 -50.28288 56.26798 111.19916 84.2435 11.34352 -3.38732 42.50667 14.901 -41.81302 75.09073 -132.86552 25.24797 -5.56722 57.01419 -1.666 -9.72366 -65.34938 7.26791 -2.1305 0.16071 58.35825 7.0304 4.10385 -60.51984 6.13854 5.526 7.13277
0.13325 0.44175 0.01136 181.60902 0 -4.72576 -3.08032 5.16967 -0.37867 -26.01703 3.00768 2.44829 76.44426 -50.87906 56.41239 112.95829 81.60983 10.47229 -3.92433 42.26669 14.31788 -41.81403 74.15114 -132.26143 24.90638 -5.49001 56.98487 -1.67149 -9.72514 -65.3236 7.26229 -2.12485 0.16964 58.32221 7.01758 4.09887 -60.48496 6.14147 5.5299 7.14821
0.13317 0.44187 0.01137 181.61779 0 -4.72518 -3.04392 5.11963 -0.48836 -25.60049 3.18062 2.55122 78.2931 -51.40441 56.58353 114.67557 80.37684 8.75891 -4.48395 41.95795 13.79425 -41.80807 73.32588 -131.76484 24.58938 -5.43454 56.95854 -1.67601 -9.7251 -65.3003 7.2575 -2.12202 0.17112 58.29197 7.00258 4.09081 -60.45296 6.14141 5.53419 7.16024
0.13315 0.44194 0.0114 181.64241 0 -4.73302 -3.02644 5.09836 -0.4862 -25.03906 3.32286 2.53906 79.83973 -51.76075 56.85447 116.30543 83.12698 4.80576 -5.18631 41.47817 13.42641 -41.78371 72.80251 -131.56623 24.31822 -5.44144 56.94068 -1.67778 -9.72243 -65.28419 7.2556 -2.12629 0.15279 58.27891 6.98325 4.07515 -60.43072 6.13349 5.53968 7.16133
0.13315 0.44198 0.01143 181.67268 0 -4.74368 -3.01589 5.08744 -0.44445 -24.41434 3.451 2.48549 81.25819 -52.04558 57.14873 117.88707 87.26729 0.04335 -5.90804 40.92565 13.12038 -41.75233 72.39668 -131.47593 24.07183 -5.47017 56.92577 -1.6785 -9.71834 -65.27047 7.25457 -2.13333 0.12725 58.27159 6.96229 4.05703 -60.41143 6.12281 5.54539 7.15864
